<svg xmlns="http://www.w3.org/2000/svg" xmlns:xlink="http://www.w3.org/1999/xlink" version="1.1" width="256" height="256" viewBox="0 0 256 256" xml:space="preserve">

<defs>
</defs>
<g style="stroke: none; stroke-width: 0; stroke-dasharray: none; stroke-linecap: butt; stroke-linejoin: miter; stroke-miterlimit: 10; fill: none; fill-rule: nonzero; opacity: 1;" transform="translate(1.4065934065934016 1.4065934065934016) scale(2.81 2.81)" >
	<path d="M 72.076 27.809 H 1 c -0.552 0 -1 -0.448 -1 -1 v -9.408 c 0 -2.544 2.07 -4.615 4.615 -4.615 h 63.846 c 2.544 0 4.614 2.07 4.614 4.615 v 9.408 C 73.076 27.362 72.629 27.809 72.076 27.809 z M 2 25.809 h 69.075 v -8.408 c 0 -1.442 -1.173 -2.615 -2.614 -2.615 H 4.615 C 3.173 14.787 2 15.96 2 17.402 V 25.809 z" style="stroke: none; stroke-width: 1; stroke-dasharray: none; stroke-linecap: butt; stroke-linejoin: miter; stroke-miterlimit: 10; fill: rgb(0,0,0); fill-rule: nonzero; opacity: 1;" transform=" matrix(1 0 0 1 0 0) " stroke-linecap="round" />
	<path d="M 67.953 81.935 H 5.124 C 2.299 81.935 0 79.636 0 76.811 V 26.809 c 0 -0.552 0.448 -1 1 -1 s 1 0.448 1 1 v 50.002 c 0 1.723 1.401 3.124 3.124 3.124 h 62.829 c 1.722 0 3.123 -1.401 3.123 -3.124 v -6.328 c 0 -0.553 0.447 -1 1 -1 c 0.553 0 1 0.447 1 1 v 6.328 C 73.076 79.636 70.778 81.935 67.953 81.935 z" style="stroke: none; stroke-width: 1; stroke-dasharray: none; stroke-linecap: butt; stroke-linejoin: miter; stroke-miterlimit: 10; fill: rgb(0,0,0); fill-rule: nonzero; opacity: 1;" transform=" matrix(1 0 0 1 0 0) " stroke-linecap="round" />
	<path d="M 57.89 19.511 c -0.553 0 -1 -0.448 -1 -1 V 9.065 c 0 -0.552 0.447 -1 1 -1 c 0.553 0 1 0.448 1 1 v 9.446 C 58.889 19.063 58.442 19.511 57.89 19.511 z" style="stroke: none; stroke-width: 1; stroke-dasharray: none; stroke-linecap: butt; stroke-linejoin: miter; stroke-miterlimit: 10; fill: rgb(0,0,0); fill-rule: nonzero; opacity: 1;" transform=" matrix(1 0 0 1 0 0) " stroke-linecap="round" />
	<path d="M 15.187 19.511 c -0.552 0 -1 -0.448 -1 -1 V 9.065 c 0 -0.552 0.448 -1 1 -1 c 0.552 0 1 0.448 1 1 v 9.446 C 16.187 19.063 15.739 19.511 15.187 19.511 z" style="stroke: none; stroke-width: 1; stroke-dasharray: none; stroke-linecap: butt; stroke-linejoin: miter; stroke-miterlimit: 10; fill: rgb(0,0,0); fill-rule: nonzero; opacity: 1;" transform=" matrix(1 0 0 1 0 0) " stroke-linecap="round" />
	<path d="M 36.538 19.511 c -0.552 0 -1 -0.448 -1 -1 V 9.065 c 0 -0.552 0.448 -1 1 -1 c 0.552 0 1 0.448 1 1 v 9.446 C 37.538 19.063 37.09 19.511 36.538 19.511 z" style="stroke: none; stroke-width: 1; stroke-dasharray: none; stroke-linecap: butt; stroke-linejoin: miter; stroke-miterlimit: 10; fill: rgb(0,0,0); fill-rule: nonzero; opacity: 1;" transform=" matrix(1 0 0 1 0 0) " stroke-linecap="round" />
	<path d="M 87.056 71.483 h -60.28 c -3.718 0 -7.349 -1.308 -10.222 -3.683 C 5.261 58.47 0 45.444 0 26.809 c 0 -0.552 0.448 -1 1 -1 h 71.075 c 0.553 0 1 0.448 1 1 c 0 18.004 5.037 30.546 15.851 39.469 c 0.969 0.8 1.32 2.079 0.896 3.26 C 89.398 70.719 88.312 71.483 87.056 71.483 z M 2.006 27.809 C 2.19 45.268 7.231 57.504 17.828 66.26 c 2.517 2.079 5.694 3.224 8.949 3.224 h 60.28 c 0.613 0 0.832 -0.476 0.885 -0.621 c 0.052 -0.146 0.186 -0.651 -0.287 -1.041 c -11.107 -9.165 -16.387 -21.896 -16.573 -40.012 H 2.006 z" style="stroke: none; stroke-width: 1; stroke-dasharray: none; stroke-linecap: butt; stroke-linejoin: miter; stroke-miterlimit: 10; fill: rgb(0,0,0); fill-rule: nonzero; opacity: 1;" transform=" matrix(1 0 0 1 0 0) " stroke-linecap="round" />
</g>
</svg>